<?xml version="1.0" encoding="utf-8"?>
<!-- Generator: Adobe Illustrator 25.1.0, SVG Export Plug-In . SVG Version: 6.00 Build 0)  -->
<svg version="1.1" id="Layer_1" xmlns="http://www.w3.org/2000/svg" xmlns:xlink="http://www.w3.org/1999/xlink" x="0px" y="0px"
	 viewBox="0 0 299.2 345.6" style="enable-background:new 0 0 299.2 345.6;" xml:space="preserve">
<style type="text/css">
	.st0{fill:#0D61FF;}
	.st1{fill:#FFFFFF;}
	.st2{fill:#262D33;}
</style>
<g>
	<path class="st2" d="M170.5,114.9c-0.2-0.1-0.2-0.3-0.1-0.5l52.9-53v-5.7c0-0.9-0.8-1.7-1.7-1.7h-97.3V22.1h0v-9.6l-35.9,7.5v5.4h2
		c0,0,8.8,0,8.8,8.8v19.8H71.3c-0.5,0-1,0.5-1,1v12.2h28.8c0,0,0,13.3,0,28.8v39.1c0,21.3,13.7,36.1,37.7,34.1
		c5.1-0.4,9.8-2.4,13.8-5c1.8-1.2,2.9-3.1,2.9-5.3v-6.7c-7.8,5.2-14.4,4.9-14.4,4.9c-15.2,0-14.9-19.3-14.9-19.3V67.3h70l-50.4,50.8
		c-0.1,6.6-0.2,11.9-0.2,12c0,0.1,0.1,0.3,0.3,0.3c46.2,7.8,58.7,37.7,58.7,46.4c0,0,5,42.3-37.3,45.2c0,0-27.7,1.2-32.6-9.9
		c-0.2-0.4,0-0.8,0.4-1c4.6-2.1,7.7-6.2,7.7-11.7c0-8.2-5-14.9-15.5-14.9c-8.5,0-15.5,6.7-15.5,14.9c0,0-4,35.6,55.4,34.6
		c68-1.2,63.7-58.1,63.7-58.1C226.6,135.2,175.4,116.7,170.5,114.9z"/>
	<polygon class="st2" points="76.3,259.8 20.8,259.8 20.8,265 45.5,265 45.5,332 51.6,332 51.6,265 76.3,265 	"/>
	<path class="st2" d="M98.1,277.4c-4.2,0-8,1.2-11.6,3.5c-3.6,2.4-6.3,5.6-8.3,9.7s-3,8.8-3,13.9v2.1c0,5,1,9.5,3.1,13.5
		s4.9,7.2,8.6,9.4c3.7,2.2,7.8,3.4,12.4,3.4c8.3,0,14.6-3.2,19-9.5l-3.7-2.8c-2,2.5-4.2,4.4-6.6,5.5c-2.4,1.2-5.2,1.7-8.4,1.7
		c-5.3,0-9.7-2-13.2-6.1s-5.2-9.1-5.2-15.2v-1.1h38.3v-3.3c0-7.7-1.9-13.8-5.7-18.2C109.8,279.6,104.6,277.4,98.1,277.4z
		 M113.4,300.5H81.3c0.7-5.5,2.5-9.9,5.6-13.2s6.8-4.9,11.3-4.9c4.5,0,8.1,1.6,10.9,4.9c2.8,3.2,4.2,7.4,4.4,12.6L113.4,300.5
		L113.4,300.5z"/>
	<polygon class="st2" points="169.5,282.8 169.5,278.4 130.5,278.4 130.5,283.5 162,283.5 129.5,327.6 129.5,332 171.7,332 
		171.7,327 136.8,327 	"/>
	<path class="st2" d="M204.1,277.4c-4.6,0-8.8,1.2-12.4,3.5c-3.7,2.3-6.5,5.5-8.5,9.6s-3,8.8-3,13.9v1.2c0,8.3,2.2,14.9,6.7,19.9
		c4.4,5,10.2,7.5,17.3,7.5c4.7,0,8.8-1.1,12.4-3.4c3.6-2.2,6.4-5.4,8.4-9.6s3-8.8,3-14v-1.2c0-8.3-2.2-14.9-6.6-19.9
		C217,279.9,211.3,277.4,204.1,277.4z M222.2,305.5c0,6.7-1.7,12.2-5,16.3c-3.3,4.1-7.7,6.2-13,6.2c-5.4,0-9.7-2.1-13.1-6.2
		s-5-9.4-5-15.8v-1.1c0-6.7,1.7-12.1,5-16.3c3.3-4.2,7.7-6.2,12.9-6.2c3.5,0,6.7,0.9,9.4,2.8c2.7,1.9,4.9,4.5,6.4,7.9
		c1.5,3.4,2.3,7.2,2.3,11.2L222.2,305.5L222.2,305.5z"/>
	<path class="st2" d="M276.5,311c-1.3-2-3.2-3.6-5.8-5s-6.5-2.7-11.7-3.9c-5.2-1.2-8.8-2.6-10.8-4s-2.9-3.5-2.9-6.2
		c0-2.8,1.2-5,3.5-6.8c2.4-1.7,5.5-2.6,9.4-2.6c4,0,7.3,1,9.9,3.1c2.6,2.1,3.9,4.7,3.9,7.8h5.9c0-4.8-1.8-8.6-5.4-11.6
		c-3.6-3-8.4-4.4-14.4-4.4c-5.5,0-10.1,1.4-13.6,4.1c-3.5,2.8-5.3,6.2-5.3,10.5c0,2.7,0.6,5,1.9,6.8s3.2,3.5,5.8,4.8
		c2.6,1.3,6.3,2.5,11.1,3.5c4.8,1,8.3,2.4,10.7,4.2c2.4,1.8,3.5,4.2,3.5,7.1c0,2.8-1.3,5.1-3.8,6.9c-2.5,1.8-5.9,2.7-10,2.7
		c-4.4,0-8-1-10.7-2.9c-2.7-1.9-4.2-4.6-4.4-8.1h-5.9c0,4.6,1.9,8.5,5.8,11.5c3.9,3,8.9,4.5,15.2,4.5c5.9,0,10.7-1.3,14.3-4.1
		s5.5-6.3,5.5-10.9C278.4,315.3,277.8,312.9,276.5,311z"/>
</g>
</svg>
